<svg width="20" height="20" fill="none" xmlns="http://www.w3.org/2000/svg"><path d="M9.41 16.423h.001c.02.02.04.038.06.055l.03.022.036.026.037.022.033.02.038.018.036.017.038.014.04.014.037.01.041.01.044.006.037.006c.054.005.11.005.164 0l.037-.006.044-.006.041-.01.038-.01.04-.014.037-.014a.292.292 0 00.036-.017.326.326 0 00.038-.018l.033-.02.037-.022.036-.026.03-.022a.807.807 0 00.06-.055l5.834-5.834a.833.833 0 00-1.179-1.178l-4.41 4.41V.834a.833.833 0 00-1.667 0v12.989L4.756 9.41a.833.833 0 10-1.179 1.178l5.834 5.834zm6.423 1.91H4.167a.833.833 0 100 1.667h11.666a.833.833 0 100-1.667z" fill="#273529"/></svg>